<svg xmlns="http://www.w3.org/2000/svg" version="1.1" xmlns:xlink="http://www.w3.org/1999/xlink" xmlns:svgjs="http://svgjs.dev/svgjs" width="2000" height="1247" viewBox="0 0 2000 1247"><g transform="matrix(1,0,0,1,-1.2121212121212466,0.504858299595071)"><svg viewBox="0 0 396 247" data-background-color="#000000" preserveAspectRatio="xMidYMid meet" height="1247" width="2000" xmlns="http://www.w3.org/2000/svg" xmlns:xlink="http://www.w3.org/1999/xlink"><g id="tight-bounds" transform="matrix(1,0,0,1,0.2400000000000091,-0.09999999999999432)"><svg viewBox="0 0 395.52 247.2" height="247.2" width="395.52"><rect width="395.52" height="247.2" fill="url(#93040469-1ec0-41d0-9301-5e4762a8faa1)" mask="url(#d5d25782-588c-4928-a9f5-0ceb204b7234)" data-fill-palette-color="tertiary"></rect><g><svg></svg></g><g><svg viewBox="0 0 395.52 247.2" height="247.2" width="395.52"><g><path d="M55.039 247.2l31.25-54.126 6.766 0-27.681 47.945h264.772l-27.681-47.945 6.766 0 31.25 54.126zM197.76 0l31.25 54.126-6.767 0-24.483-42.406-24.483 42.406-6.767 0z" fill="url(#93040469-1ec0-41d0-9301-5e4762a8faa1)" fill-rule="nonzero" stroke="none" stroke-width="1" stroke-linecap="butt" stroke-linejoin="miter" stroke-miterlimit="10" stroke-dasharray="" stroke-dashoffset="0" font-family="none" font-weight="none" font-size="none" text-anchor="none" style="mix-blend-mode: normal" data-fill-palette-color="tertiary"></path></g><g transform="matrix(1,0,0,1,0,73.97583474432781)"><svg viewBox="0 0 395.52 99.24833051134438" height="99.24833051134438" width="395.52"><g><svg viewBox="0 0 395.52 99.24833051134438" height="99.24833051134438" width="395.52"><g><svg viewBox="0 0 395.52 99.24833051134438" height="99.24833051134438" width="395.52"><g id="textblocktransform"><svg viewBox="0 0 395.52 99.24833051134438" height="99.24833051134438" width="395.52" id="textblock"><g><svg viewBox="0 0 395.52 99.24833051134438" height="99.24833051134438" width="395.52"><g transform="matrix(1,0,0,1,0,0)"><svg width="395.52" viewBox="2 -34.65 148.14 37.05" height="99.24833051134438" data-palette-color="url(#5af7c68d-6f3a-4c21-b565-8cc8746b6fb6)"><g class="wordmark-text-0" data-fill-palette-color="primary" id="text-0"></g></svg></g></svg></g></svg></g></svg></g><g></g></svg></g></svg></g></svg></g><defs></defs><mask id="60c43a11-cff0-489f-aaa9-2b068bada154"><g id="SvgjsG1255"><svg viewBox="0 0 395.52 247.2" height="247.2" width="395.52"><g><svg></svg></g><g><svg viewBox="0 0 395.52 247.2" height="247.2" width="395.52"><g><path d="M55.039 247.2l31.25-54.126 6.766 0-27.681 47.945h264.772l-27.681-47.945 6.766 0 31.25 54.126zM197.76 0l31.25 54.126-6.767 0-24.483-42.406-24.483 42.406-6.767 0z" fill="black" fill-rule="nonzero" stroke="none" stroke-width="1" stroke-linecap="butt" stroke-linejoin="miter" stroke-miterlimit="10" stroke-dasharray="" stroke-dashoffset="0" font-family="none" font-weight="none" font-size="none" text-anchor="none" style="mix-blend-mode: normal"></path></g><g transform="matrix(1,0,0,1,0,73.97583474432781)"><svg viewBox="0 0 395.52 99.24833051134438" height="99.24833051134438" width="395.52"><g><svg viewBox="0 0 395.52 99.24833051134438" height="99.24833051134438" width="395.52"><g><svg viewBox="0 0 395.52 99.24833051134438" height="99.24833051134438" width="395.52"><g id="SvgjsG1254"><svg viewBox="0 0 395.52 99.24833051134438" height="99.24833051134438" width="395.52" id="SvgjsSvg1253"><g><svg viewBox="0 0 395.52 99.24833051134438" height="99.24833051134438" width="395.52"><g transform="matrix(1,0,0,1,0,0)"><svg width="395.52" viewBox="2 -34.65 148.14 37.05" height="99.24833051134438" data-palette-color="url(#5af7c68d-6f3a-4c21-b565-8cc8746b6fb6)"><g class="wordmark-text-0" data-fill-palette-color="primary" id="SvgjsG1252"><path d="M3.85 2.05L3.85 2.05Q2.75 2.05 2.05 1.75L2.05 1.75Q2.05-6.65 3.5-22.2L3.5-22.2 3.95-27.35Q3.25-28.2 2.63-29.95 2-31.7 2-32.4L2-32.4 2.05-32.55Q2.2-32.75 4.55-32.9 6.9-33.05 9.73-33.05 12.55-33.05 12.8-32.8 13.05-32.55 15.2-26.53 17.35-20.5 18.4-17.2L18.4-17.2Q18.5-16.95 18.65-16.95 18.8-16.95 19.15-18.03 19.5-19.1 22.05-25.53 24.6-31.95 25.45-32.8L25.45-32.8Q25.9-33.25 30.3-33.25 34.7-33.25 34.7-33L34.7-33Q34.7-32.15 34.02-30.05 33.35-27.95 32.9-27.1L32.9-27.1Q34.65-11.25 34.65 0.95L34.65 0.95Q34.65 1.45 32.63 1.88 30.6 2.3 29.3 2.3 28 2.3 28 2.1L28 2.1Q28.15 0.05 28.15-4.53 28.15-9.1 27.9-15.4L27.9-15.4Q27.65-23.25 27.3-23.25L27.3-23.25 27-22.95Q26-21.1 24.43-16.7 22.85-12.3 21.8-8.8L21.8-8.8 20.75-5.35Q20.5-4.8 19.28-4.8 18.05-4.8 17.28-4.95 16.5-5.1 16.45-5.25L16.45-5.25Q16.3-5.8 13.35-14.03 10.4-22.25 9.95-22.8L9.95-22.8Q9.8-23.1 9.7-23.1 9.6-23.1 9.55-22.75L9.55-22.75Q8.65-18.2 8.65-9.38 8.65-0.55 8.9 0.85L8.9 0.85Q7.65 2.05 3.85 2.05ZM41.1-19.55L41.1-19.55 41.15-24.95Q41.15-27.1 41.05-27.3L41.05-27.3Q40.5-27.85 39.62-29.95 38.75-32.05 38.75-32.65L38.75-32.65Q39.3-33.2 56.3-33.2L56.3-33.2Q60.5-33.2 60.5-33L60.5-33Q60.5-31.95 60.02-30.7 59.55-29.45 59.02-28.7 58.5-27.95 58.27-28.03 58.05-28.1 56.22-28.1 54.4-28.1 51.15-27.88 47.9-27.65 47.6-27.35 47.3-27.05 47.3-21.85L47.3-21.85 47.35-19.75Q49.35-19.8 53.25-19.8 57.15-19.8 57.15-19.65L57.15-19.65Q57.15-17.85 55.95-15.55L55.95-15.55Q55.5-14.75 55.4-14.8L55.4-14.8Q54.1-14.8 50.95-14.58 47.8-14.35 47.3-14.05L47.3-14.05Q47.25-14 47.25-9.85 47.25-5.7 47.5-5.45L47.5-5.45Q48.3-4.65 56.1-4.65L56.1-4.65Q59.25-4.65 60.35-4.83 61.45-5 61.45-4.95L61.45-4.95Q61.45-3.75 60.65-2.1 59.85-0.45 58.95 0.4L58.95 0.4Q58.45 0.9 49.97 0.9 41.5 0.9 41.2 0.5L41.2 0.5Q40.9 0.25 40.9-4.33 40.9-8.9 41-14L41-14Q40.1-14.8 39.27-16.5 38.45-18.2 38.45-19.4L38.45-19.4Q38.45-19.45 41.1-19.55ZM82.6-8.55Q84.05-10 85.05-12.48 86.05-14.95 86.05-17.75 86.05-20.55 85.05-22.53 84.05-24.5 82.7-25.53 81.35-26.55 79.6-27.2L79.6-27.2Q76.9-28.2 74.45-28.2L74.45-28.2Q73.8-28.2 73.8-28.15L73.8-28.15Q73.45-27.8 73.45-16.35 73.45-4.9 73.8-4.55L73.8-4.55Q73.9-4.45 74.52-4.45 75.15-4.45 76.42-4.8 77.7-5.15 79.42-6.13 81.15-7.1 82.6-8.55ZM67.1-7.6L67.1-7.6 67.25-27.35Q66.7-28.2 65.85-30.38 65-32.55 65-32.98 65-33.4 65.05-33.45L65.05-33.45Q65.55-33.95 70.95-33.95L70.95-33.95Q81.35-33.95 87.02-29.6 92.7-25.25 92.7-17.95L92.7-17.95Q92.7-14.35 91.55-11.33 90.4-8.3 88.47-6.23 86.55-4.15 84.17-2.58 81.8-1 79.15-0.1L79.15-0.1Q73.95 1.6 69.7 1.6L69.7 1.6Q67.7 1.6 67.4 1.3 67.1 1 67.1-7.6ZM98.84-19.55L98.84-19.55 98.89-24.95Q98.89-27.1 98.79-27.3L98.79-27.3Q98.24-27.85 97.37-29.95 96.49-32.05 96.49-32.65L96.49-32.65Q97.04-33.2 114.04-33.2L114.04-33.2Q118.24-33.2 118.24-33L118.24-33Q118.24-31.95 117.77-30.7 117.29-29.45 116.77-28.7 116.24-27.95 116.02-28.03 115.79-28.1 113.97-28.1 112.14-28.1 108.89-27.88 105.64-27.65 105.34-27.35 105.04-27.05 105.04-21.85L105.04-21.85 105.09-19.75Q107.09-19.8 110.99-19.8 114.89-19.8 114.89-19.65L114.89-19.65Q114.89-17.85 113.69-15.55L113.69-15.55Q113.24-14.75 113.14-14.8L113.14-14.8Q111.84-14.8 108.69-14.58 105.54-14.35 105.04-14.05L105.04-14.05Q104.99-14 104.99-9.85 104.99-5.7 105.24-5.45L105.24-5.45Q106.04-4.65 113.84-4.65L113.84-4.65Q116.99-4.65 118.09-4.83 119.19-5 119.19-4.95L119.19-4.95Q119.19-3.75 118.39-2.1 117.59-0.45 116.69 0.4L116.69 0.4Q116.19 0.9 107.72 0.9 99.24 0.9 98.94 0.5L98.94 0.5Q98.64 0.25 98.64-4.33 98.64-8.9 98.74-14L98.74-14Q97.84-14.8 97.02-16.5 96.19-18.2 96.19-19.4L96.19-19.4Q96.19-19.45 98.84-19.55ZM132.44 2.4L132.44 2.4Q131.94 2.4 131.84 2.3L131.84 2.3Q130.19 0.8 125.69-12.75 121.19-26.3 121.19-31.35L121.19-31.35Q121.19-31.45 121.89-31.75L121.89-31.75Q123.99-32.7 125.72-32.7 127.44-32.7 127.44-32.55L127.44-32.55Q127.64-30.1 130.42-19.6 133.19-9.1 135.19-5.05L135.19-5.05Q135.64-4.15 136.09-4.6L136.09-4.6Q136.24-4.75 136.29-4.95L136.29-4.95Q137.64-7.5 140.17-15.33 142.69-23.15 142.69-28.2L142.69-28.2Q142.69-28.8 141.56-29.5 140.44-30.2 139.54-30.3L139.54-30.3Q139.49-30.4 139.49-30.85 139.49-31.3 139.74-32.27 139.99-33.25 140.19-33.4L140.19-33.4Q144.79-34.65 149.39-34.65L149.39-34.65Q150.14-34.55 150.14-34.45L150.14-34.45Q150.14-30.15 147.81-21.58 145.49-13 143.04-6.28 140.59 0.45 139.84 1.2L139.84 1.2Q137.64 2.4 132.44 2.4Z" fill="white"></path></g></svg></g></svg></g></svg></g></svg></g><g></g></svg></g></svg></g></svg></g><defs><mask></mask></defs></svg><rect width="395.52" height="247.2" fill="black" stroke="none" visibility="hidden"></rect></g></mask><linearGradient x1="0" x2="1" y1="0.578" y2="0.595" id="5af7c68d-6f3a-4c21-b565-8cc8746b6fb6"><stop stop-color="#dede50" offset="0"></stop><stop stop-color="#559c49" offset="1"></stop></linearGradient><rect width="395.52" height="247.2" fill="url(#5af7c68d-6f3a-4c21-b565-8cc8746b6fb6)" mask="url(#60c43a11-cff0-489f-aaa9-2b068bada154)" data-fill-palette-color="primary"></rect><mask id="d5d25782-588c-4928-a9f5-0ceb204b7234"><g id="SvgjsG1281"><svg viewBox="0 0 395.52 247.2" height="247.2" width="395.52"><g><svg></svg></g><g><svg viewBox="0 0 395.52 247.2" height="247.2" width="395.52"><g><path d="M55.039 247.2l31.25-54.126 6.766 0-27.681 47.945h264.772l-27.681-47.945 6.766 0 31.25 54.126zM197.76 0l31.25 54.126-6.767 0-24.483-42.406-24.483 42.406-6.767 0z" fill="white" fill-rule="nonzero" stroke="none" stroke-width="1" stroke-linecap="butt" stroke-linejoin="miter" stroke-miterlimit="10" stroke-dasharray="" stroke-dashoffset="0" font-family="none" font-weight="none" font-size="none" text-anchor="none" style="mix-blend-mode: normal"></path></g><g transform="matrix(1,0,0,1,0,73.97583474432781)"><svg viewBox="0 0 395.52 99.24833051134438" height="99.24833051134438" width="395.52"><g><svg viewBox="0 0 395.52 99.24833051134438" height="99.24833051134438" width="395.52"><g><svg viewBox="0 0 395.52 99.24833051134438" height="99.24833051134438" width="395.52"><g id="SvgjsG1280"><svg viewBox="0 0 395.52 99.24833051134438" height="99.24833051134438" width="395.52" id="SvgjsSvg1279"><g><svg viewBox="0 0 395.52 99.24833051134438" height="99.24833051134438" width="395.52"><g transform="matrix(1,0,0,1,0,0)"><svg width="395.52" viewBox="2 -34.65 148.14 37.05" height="99.24833051134438" data-palette-color="url(#5af7c68d-6f3a-4c21-b565-8cc8746b6fb6)"><g class="wordmark-text-0" data-fill-palette-color="primary" id="SvgjsG1278"></g></svg></g></svg></g></svg></g></svg></g><g></g></svg></g></svg></g></svg></g><defs><mask></mask></defs><mask><g id="SvgjsG1277"><svg viewBox="0 0 395.52 247.2" height="247.2" width="395.52"><g><svg></svg></g><g><svg viewBox="0 0 395.52 247.2" height="247.2" width="395.52"><g><path d="M55.039 247.2l31.25-54.126 6.766 0-27.681 47.945h264.772l-27.681-47.945 6.766 0 31.25 54.126zM197.76 0l31.25 54.126-6.767 0-24.483-42.406-24.483 42.406-6.767 0z" fill="black" fill-rule="nonzero" stroke="none" stroke-width="1" stroke-linecap="butt" stroke-linejoin="miter" stroke-miterlimit="10" stroke-dasharray="" stroke-dashoffset="0" font-family="none" font-weight="none" font-size="none" text-anchor="none" style="mix-blend-mode: normal"></path></g><g transform="matrix(1,0,0,1,0,73.97583474432781)"><svg viewBox="0 0 395.52 99.24833051134438" height="99.24833051134438" width="395.52"><g><svg viewBox="0 0 395.52 99.24833051134438" height="99.24833051134438" width="395.52"><g><svg viewBox="0 0 395.52 99.24833051134438" height="99.24833051134438" width="395.52"><g id="SvgjsG1276"><svg viewBox="0 0 395.52 99.24833051134438" height="99.24833051134438" width="395.52" id="SvgjsSvg1275"><g><svg viewBox="0 0 395.52 99.24833051134438" height="99.24833051134438" width="395.52"><g transform="matrix(1,0,0,1,0,0)"><svg width="395.52" viewBox="2 -34.65 148.14 37.05" height="99.24833051134438" data-palette-color="url(#5af7c68d-6f3a-4c21-b565-8cc8746b6fb6)"><g class="wordmark-text-0" data-fill-palette-color="primary" id="SvgjsG1274"><path d="M3.85 2.05L3.85 2.05Q2.75 2.05 2.05 1.75L2.05 1.75Q2.05-6.65 3.5-22.2L3.5-22.2 3.95-27.35Q3.25-28.2 2.63-29.95 2-31.7 2-32.4L2-32.4 2.05-32.55Q2.2-32.75 4.55-32.9 6.9-33.05 9.73-33.05 12.55-33.05 12.8-32.8 13.05-32.55 15.2-26.53 17.35-20.5 18.4-17.2L18.4-17.2Q18.5-16.95 18.65-16.95 18.8-16.95 19.15-18.03 19.5-19.1 22.05-25.53 24.6-31.95 25.45-32.8L25.45-32.8Q25.9-33.25 30.3-33.25 34.7-33.25 34.7-33L34.7-33Q34.7-32.15 34.02-30.05 33.35-27.95 32.9-27.1L32.9-27.1Q34.65-11.25 34.65 0.95L34.65 0.95Q34.65 1.45 32.63 1.88 30.6 2.3 29.3 2.3 28 2.3 28 2.1L28 2.1Q28.15 0.05 28.15-4.53 28.15-9.1 27.9-15.4L27.9-15.4Q27.65-23.25 27.3-23.25L27.3-23.25 27-22.95Q26-21.1 24.43-16.7 22.85-12.3 21.8-8.8L21.8-8.8 20.75-5.35Q20.5-4.8 19.28-4.8 18.05-4.8 17.28-4.95 16.5-5.1 16.45-5.25L16.45-5.25Q16.3-5.8 13.35-14.03 10.4-22.25 9.95-22.8L9.95-22.8Q9.8-23.1 9.7-23.1 9.6-23.1 9.55-22.75L9.55-22.75Q8.65-18.2 8.65-9.38 8.65-0.55 8.9 0.85L8.9 0.85Q7.65 2.05 3.85 2.05ZM41.1-19.55L41.1-19.55 41.15-24.95Q41.15-27.1 41.05-27.3L41.05-27.3Q40.5-27.85 39.62-29.95 38.75-32.05 38.75-32.65L38.75-32.65Q39.3-33.2 56.3-33.2L56.3-33.2Q60.5-33.2 60.5-33L60.5-33Q60.5-31.95 60.02-30.7 59.55-29.45 59.02-28.7 58.5-27.95 58.27-28.03 58.05-28.1 56.22-28.1 54.4-28.1 51.15-27.88 47.9-27.65 47.6-27.35 47.3-27.05 47.3-21.85L47.3-21.85 47.35-19.75Q49.35-19.8 53.25-19.8 57.15-19.8 57.15-19.65L57.15-19.65Q57.15-17.85 55.95-15.55L55.95-15.55Q55.5-14.75 55.4-14.8L55.4-14.8Q54.1-14.8 50.95-14.58 47.8-14.35 47.3-14.05L47.3-14.05Q47.25-14 47.25-9.85 47.25-5.7 47.5-5.45L47.5-5.45Q48.3-4.65 56.1-4.65L56.1-4.65Q59.25-4.65 60.35-4.83 61.45-5 61.45-4.95L61.45-4.95Q61.45-3.75 60.65-2.1 59.85-0.45 58.95 0.4L58.95 0.4Q58.45 0.9 49.97 0.9 41.5 0.9 41.2 0.5L41.2 0.5Q40.9 0.25 40.9-4.33 40.9-8.9 41-14L41-14Q40.1-14.8 39.27-16.5 38.45-18.2 38.45-19.4L38.45-19.4Q38.45-19.45 41.1-19.55ZM82.6-8.55Q84.05-10 85.05-12.48 86.05-14.95 86.05-17.75 86.05-20.55 85.05-22.53 84.05-24.5 82.7-25.53 81.35-26.55 79.6-27.2L79.6-27.2Q76.9-28.2 74.45-28.2L74.45-28.2Q73.8-28.2 73.8-28.15L73.8-28.15Q73.45-27.8 73.45-16.35 73.45-4.9 73.8-4.55L73.8-4.55Q73.9-4.45 74.52-4.45 75.15-4.45 76.42-4.8 77.7-5.15 79.42-6.13 81.15-7.1 82.6-8.55ZM67.1-7.6L67.1-7.6 67.25-27.35Q66.7-28.2 65.85-30.38 65-32.55 65-32.98 65-33.4 65.05-33.45L65.05-33.45Q65.55-33.95 70.95-33.95L70.95-33.95Q81.35-33.95 87.02-29.6 92.7-25.25 92.7-17.95L92.7-17.95Q92.7-14.35 91.55-11.33 90.4-8.3 88.47-6.23 86.55-4.15 84.17-2.58 81.8-1 79.15-0.1L79.15-0.1Q73.95 1.6 69.7 1.6L69.7 1.6Q67.7 1.6 67.4 1.3 67.1 1 67.1-7.6ZM98.84-19.55L98.84-19.55 98.89-24.95Q98.89-27.1 98.79-27.3L98.79-27.3Q98.24-27.85 97.37-29.95 96.49-32.05 96.49-32.65L96.49-32.65Q97.04-33.2 114.04-33.2L114.04-33.2Q118.24-33.2 118.24-33L118.24-33Q118.24-31.95 117.77-30.7 117.29-29.45 116.77-28.7 116.24-27.95 116.02-28.03 115.79-28.1 113.97-28.1 112.14-28.1 108.89-27.88 105.64-27.65 105.34-27.35 105.04-27.05 105.04-21.85L105.04-21.85 105.09-19.75Q107.09-19.8 110.99-19.8 114.89-19.8 114.89-19.65L114.89-19.65Q114.89-17.85 113.69-15.55L113.69-15.55Q113.24-14.75 113.14-14.8L113.14-14.8Q111.84-14.8 108.69-14.58 105.54-14.35 105.04-14.05L105.04-14.05Q104.99-14 104.99-9.85 104.99-5.7 105.24-5.45L105.24-5.45Q106.04-4.65 113.84-4.65L113.84-4.65Q116.99-4.65 118.09-4.83 119.19-5 119.19-4.95L119.19-4.95Q119.19-3.75 118.39-2.1 117.59-0.45 116.69 0.4L116.69 0.4Q116.19 0.9 107.72 0.9 99.24 0.9 98.94 0.5L98.94 0.5Q98.64 0.25 98.64-4.33 98.64-8.9 98.74-14L98.74-14Q97.84-14.8 97.02-16.5 96.19-18.2 96.19-19.4L96.19-19.4Q96.19-19.45 98.84-19.55ZM132.44 2.4L132.44 2.4Q131.94 2.4 131.84 2.3L131.84 2.3Q130.19 0.8 125.69-12.75 121.19-26.3 121.19-31.35L121.19-31.35Q121.19-31.45 121.89-31.75L121.89-31.75Q123.99-32.7 125.72-32.7 127.44-32.7 127.44-32.55L127.44-32.55Q127.64-30.1 130.42-19.6 133.19-9.1 135.19-5.05L135.19-5.05Q135.64-4.15 136.09-4.6L136.09-4.6Q136.24-4.75 136.29-4.95L136.29-4.95Q137.64-7.5 140.17-15.33 142.69-23.15 142.69-28.2L142.69-28.2Q142.69-28.8 141.56-29.5 140.44-30.2 139.54-30.3L139.54-30.3Q139.49-30.4 139.49-30.85 139.49-31.3 139.74-32.27 139.99-33.25 140.19-33.4L140.19-33.4Q144.79-34.65 149.39-34.65L149.39-34.65Q150.14-34.55 150.14-34.45L150.14-34.45Q150.14-30.15 147.81-21.58 145.49-13 143.04-6.28 140.59 0.45 139.84 1.2L139.84 1.2Q137.64 2.4 132.44 2.4Z" fill="black"></path></g></svg></g></svg></g></svg></g></svg></g><g></g></svg></g></svg></g></svg></g><defs><mask></mask></defs></svg><rect width="395.52" height="247.2" fill="black" stroke="none" visibility="hidden"></rect></g></mask></svg><rect width="395.52" height="247.2" fill="black" stroke="none" visibility="hidden"></rect></g></mask><linearGradient x1="0" x2="1" y1="0.578" y2="0.595" id="93040469-1ec0-41d0-9301-5e4762a8faa1"><stop stop-color="#dede50" offset="0"></stop><stop stop-color="#559c49" offset="1"></stop></linearGradient></svg><rect width="395.52" height="247.2" fill="none" stroke="none" visibility="hidden"></rect></g></svg></g></svg>